HIERARCHY
ROOT Hips
{
	OFFSET -3.958830 18.904000 13.208200
	CHANNELS 6 Xposition Yposition Zposition Zrotation Yrotation Xrotation 
	JOINT LHipJoint
	{
		OFFSET 0.000000 0.000000 0.000000
		CHANNELS 3 Zrotation Yrotation Xrotation
		JOINT LeftUpLeg
		{
			OFFSET 1.800000 -1.400000 0.085000
			CHANNELS 3 Zrotation Yrotation Xrotation
			JOINT LeftLeg
			{
				OFFSET 2.215000 -6.000000 0.000000
				CHANNELS 3 Zrotation Yrotation Xrotation
				JOINT LeftFoot
				{
					OFFSET 2.500000 -6.900000 0.000000
					CHANNELS 3 Zrotation Yrotation Xrotation
					JOINT LeftToeBase
					{
						OFFSET 0.200000 -0.500000 1.950000
						CHANNELS 3 Zrotation Yrotation Xrotation
						End Site
						{
							OFFSET 0.000000 0.000000 0.000000
						}
					}
				}
			}
		}
	}
	JOINT RHipJoint
	{
		OFFSET 0.000000 0.000000 0.000000
		CHANNELS 3 Zrotation Yrotation Xrotation
		JOINT RightUpLeg
		{
			OFFSET -1.800000 -1.400000 0.085000
			CHANNELS 3 Zrotation Yrotation Xrotation
			JOINT RightLeg
			{
				OFFSET -2.215000 -6.000000 0.000000
				CHANNELS 3 Zrotation Yrotation Xrotation
				JOINT RightFoot
				{
					OFFSET -2.500000 -6.900000 0.000000
					CHANNELS 3 Zrotation Yrotation Xrotation
					JOINT RightToeBase
					{
						OFFSET -0.200000 -0.500000 1.950000
						CHANNELS 3 Zrotation Yrotation Xrotation
						End Site
						{
							OFFSET 0.000000 0.000000 0.000000
						}
					}
				}
			}
		}
	}
	JOINT LowerBack
	{
		OFFSET 0.000000 0.000000 0.000000
		CHANNELS 3 Zrotation Yrotation Xrotation
		JOINT Spine
		{
			OFFSET -0.087000 1.940000 -0.288900
			CHANNELS 3 Zrotation Yrotation Xrotation
			JOINT Spine1
			{
				OFFSET 0.000000 1.950000 0.060000
				CHANNELS 3 Zrotation Yrotation Xrotation
				JOINT Neck
				{
					OFFSET 0.000000 0.000000 0.000000
					CHANNELS 3 Zrotation Yrotation Xrotation
					JOINT Neck1
					{
						OFFSET 0.000000 1.600000 0.340000
						CHANNELS 3 Zrotation Yrotation Xrotation
						JOINT Head
						{
							OFFSET 0.000000 1.667000 -0.240000
							CHANNELS 3 Zrotation Yrotation Xrotation
							End Site
							{
								OFFSET 0.000000 0.000000 0.000000
							}
						}
					}
				}
				JOINT LeftShoulder
				{
					OFFSET 0.000000 0.000000 0.000000
					CHANNELS 3 Zrotation Yrotation Xrotation
					JOINT LeftArm
					{
						OFFSET 2.700000 1.550000 -0.730000
						CHANNELS 3 Zrotation Yrotation Xrotation
						JOINT LeftForeArm
						{
							OFFSET 5.450000 0.000000 0.000000
							CHANNELS 3 Zrotation Yrotation Xrotation
							JOINT LeftHand
							{
								OFFSET 3.450000 0.000000 0.000000
								CHANNELS 3 Zrotation Yrotation Xrotation
								JOINT LeftHandIndex1
								{
									OFFSET 0.750000 0.000000 0.000000
									CHANNELS 3 Zrotation Yrotation Xrotation
									End Site
									{
										OFFSET 0.000000 0.000000 0.000000
									}
								}
							}
						}
					}
				}
				JOINT RightShoulder
				{
					OFFSET 0.000000 0.000000 0.000000
					CHANNELS 3 Zrotation Yrotation Xrotation
					JOINT RightArm
					{
						OFFSET -2.700000 1.550000 -0.730000
						CHANNELS 3 Zrotation Yrotation Xrotation
						JOINT RightForeArm
						{
							OFFSET -5.450000 0.000000 0.000000
							CHANNELS 3 Zrotation Yrotation Xrotation
							JOINT RightHand
							{
								OFFSET -3.450000 0.000000 0.000000
								CHANNELS 3 Zrotation Yrotation Xrotation
								JOINT RightHandIndex1
								{
									OFFSET -0.750000 0.000000 0.000000
									CHANNELS 3 Zrotation Yrotation Xrotation
									End Site
									{
										OFFSET 0.000000 0.000000 0.000000
									}
								}
							}
						}
					}
				}
			}
		}
	}
}
MOTION
Frames: 10
Frame Time: 0.016667
-0.447050 17.678550 0.083480 -9.774896 2.023231 -6.572306 -15.378628 13.652900 2.860566 23.164676 0.549647 -7.128768 -9.710204 8.961428 15.833624 -0.339102 6.749381 2.576582 -0.339650 -0.571710 -0.556800 17.965326 -10.920850 2.333151 -8.875052 -0.958805 -1.760300 7.914169 -6.902929 15.339413 -0.199870 -4.852064 2.908882 -0.098050 1.135310 0.078310 -2.829217 -2.429416 -7.219515 -4.538880 2.082076 11.091051 -9.397031 5.553892 4.750579 4.750270 -9.837871 -11.941259 -17.358714 -0.210469 22.137381 -0.226040 -6.875020 -1.866450 2.723392 1.491968 7.912420 -15.295959 5.899559 4.185197 146.069169 -24.110056 -76.805964 -4.435409 2.669578 0.315880 0.503900 -0.536040 0.247500 -10.921172 9.855958 2.587340 -26.374764 -10.006150 -11.945102 -104.738837 -34.736401 37.848592 2.899398 -1.808814 -0.643200 0.742700 0.555720 0.079010 
-0.445660 17.702020 0.063970 -9.805724 2.754377 -6.451013 -15.370984 13.655217 2.863223 22.807066 0.559562 -7.423420 -9.487121 8.683198 15.208093 -0.321296 6.554109 2.627585 -0.343480 -0.568700 -0.565920 17.962327 -10.946623 2.355301 -8.791406 -0.917375 -1.854497 7.858376 -6.867861 15.295821 -0.208117 -4.809597 2.924236 -0.125810 1.092660 0.074430 -2.847011 -2.400884 -7.249471 -4.939829 2.084235 11.376769 -10.359104 5.770928 5.088848 4.993807 -9.762603 -12.529517 -17.527804 -0.180470 23.063885 0.566340 -7.167090 -1.616430 3.382539 0.600230 8.068780 -14.867787 5.783679 3.370324 145.538976 -22.616260 -73.171695 -4.378044 2.698051 0.327320 0.469350 -0.509040 0.241120 -11.960084 10.820786 3.377775 -25.634109 -10.731311 -12.294257 -100.948299 -35.710081 36.180666 3.007867 -1.771556 -0.612300 0.706740 0.544780 0.084490 
-0.450320 17.723920 0.019170 -9.767955 3.797507 -6.697283 -15.380117 13.664614 2.889086 22.481559 0.633427 -7.985392 -9.500624 8.523794 14.808030 -0.277240 6.391304 2.673105 -0.372250 -0.575360 -0.601720 17.936815 -10.961327 2.393493 -8.859665 -0.889700 -1.500051 7.927012 -6.833713 15.053385 -0.204175 -4.811355 2.934978 -0.152680 1.068160 0.048260 -2.816370 -2.392688 -7.324510 -6.526720 2.507731 13.099331 -10.646157 6.149865 4.565939 5.323672 -9.527912 -13.130992 -17.164453 -0.511858 23.647771 1.498540 -7.815680 -0.500070 3.740490 -0.308521 8.072897 -14.597481 5.198809 2.633447 145.045902 -21.818310 -71.130594 -4.322997 2.731288 0.304070 0.447660 -0.505000 0.237200 -12.806642 12.003253 4.283313 -25.982623 -11.286376 -12.225863 -92.175693 -35.872594 31.207648 3.135479 -1.700532 -0.589900 0.678780 0.534650 0.103730 
-0.449180 17.733970 -0.034050 -9.989432 4.838378 -6.328519 -15.365766 13.587839 2.915152 22.192647 0.610762 -9.660774 -9.842838 8.550719 15.100389 -0.234054 6.254078 2.691145 -0.370840 -0.541050 -0.619340 17.955618 -10.972685 2.396638 -8.798400 -0.683735 -2.108121 8.613056 -7.023977 15.711226 -0.209550 -4.828809 2.928948 -0.162900 1.036960 0.034930 -2.881472 -2.278866 -7.329219 -6.940635 2.521058 13.820593 -12.499629 6.673305 5.553169 5.584818 -9.212682 -13.580955 -16.281739 -1.313999 23.402464 2.949500 -8.782860 -0.902260 4.850755 -0.647673 8.035025 -14.781261 4.295436 1.899427 144.686494 -21.707230 -71.941303 -4.274115 2.785121 0.274110 0.421230 -0.486610 0.240330 -14.456266 12.269329 5.150917 -24.653201 -11.025685 -12.837913 -81.502256 -37.717565 26.673719 3.411018 -1.598731 -0.545780 0.651150 0.508460 0.130570 
-0.452710 17.743120 -0.099570 -9.965043 6.459620 -6.419872 -15.363217 13.576905 2.914781 21.762743 0.551980 -11.124977 -9.758651 8.550980 15.876478 -0.241306 6.171762 2.720622 -0.386190 -0.550940 -0.638680 17.951218 -10.990250 2.424415 -8.950634 -0.596145 -2.122460 8.780465 -6.973725 15.310023 -0.213898 -4.792390 2.964521 -0.180370 1.046210 0.013770 -2.909247 -2.231667 -7.350630 -8.425623 2.709298 15.866058 -13.484619 7.068058 5.868819 5.710060 -8.733161 -13.837286 -15.078396 -2.617224 23.286470 4.648330 -10.289340 -2.028180 5.490110 -1.226556 7.725067 -13.739904 3.329355 1.326879 144.387680 -22.788842 -74.969514 -4.237149 2.758048 0.294210 0.403630 -0.476500 0.254150 -15.393395 12.651169 6.000341 -24.793288 -11.557860 -12.842569 -68.797508 -38.877452 21.839351 3.695655 -1.358662 -0.555300 0.679290 0.500290 0.142980 
-0.459620 17.754050 -0.182520 -9.735886 8.384565 -6.425714 -15.409428 13.697589 2.898264 20.888962 0.449665 -12.994068 -9.017102 8.397310 16.981004 -0.222048 5.965590 2.751576 -0.413860 -0.573590 -0.648520 17.894462 -10.950065 2.430207 -8.932311 -0.433071 -2.383612 9.046111 -7.054186 15.672454 -0.227184 -4.731189 2.978165 -0.237640 0.982410 0.015800 -2.801613 -2.491975 -7.322314 -10.534474 2.872000 17.715575 -13.676147 7.511684 6.926715 6.054918 -8.820933 -14.478193 -15.068329 -4.621665 23.388285 5.997240 -12.221480 -3.784250 6.575475 -1.881843 7.914724 -14.571105 2.140321 0.560669 144.244419 -23.289434 -77.856104 -4.171947 2.769529 0.320610 0.345650 -0.423610 0.230400 -16.971352 13.469861 7.113415 -25.332667 -13.878644 -12.469800 -53.573173 -38.251111 16.104951 4.124845 -0.980625 -0.512540 0.643890 0.498530 0.151190 
-0.454280 17.755170 -0.239870 -9.802358 10.512494 -5.671729 -15.427573 13.731545 2.917677 20.273677 0.228045 -15.576015 -8.240787 8.366308 18.729639 -0.160632 5.767234 2.737095 -0.412160 -0.561290 -0.642900 17.870109 -10.952059 2.468125 -8.208776 -0.289550 -3.220896 8.610154 -6.745083 15.191032 -0.226615 -4.506742 3.026737 -0.297180 0.870120 0.042270 -2.782598 -2.524735 -7.343889 -11.502595 2.707854 18.484481 -14.405834 7.714203 7.501007 6.232029 -8.827817 -15.202125 -15.249416 -5.820319 24.591282 8.187720 -13.863520 -4.677630 7.595750 -2.872366 8.211512 -14.668794 1.107025 -0.155674 144.244435 -23.532501 -79.616635 -4.077427 2.859687 0.330190 0.268550 -0.347950 0.202690 -18.115738 14.333174 8.085878 -26.458385 -16.034317 -11.163600 -38.791870 -33.997913 10.131952 4.398742 -0.635085 -0.418000 0.535210 0.471720 0.164630 
-0.439490 17.736020 -0.280870 -9.886468 12.770016 -3.680834 -15.415324 13.708479 2.945604 18.956170 -0.265606 -19.194747 -6.567164 7.878542 20.046331 -0.262898 5.446868 2.823588 -0.385570 -0.569030 -0.562450 17.869871 -10.987534 2.504835 -8.422786 0.153357 -5.410218 9.436244 -6.798180 15.330225 -0.229209 -4.320410 3.061497 -0.317620 0.813950 0.044500 -2.848958 -2.426929 -7.356269 -11.229992 1.875506 17.846012 -16.763584 7.457273 7.796914 6.391738 -8.513932 -15.319033 -14.721484 -7.067743 25.498017 9.492360 -14.559640 -8.086320 8.104303 -2.840848 7.586730 -13.167906 -0.009690 -0.442801 144.584145 -24.537671 -82.825131 -4.019501 2.833436 0.417430 0.209570 -0.290050 0.181430 -19.018606 13.926301 8.398828 -26.691729 -14.867138 -10.138280 -28.469761 -28.892600 5.997703 4.386771 -0.335801 -0.424160 0.548310 0.455060 0.126060 
-0.424350 17.697580 -0.318700 -10.941623 13.444159 -1.834789 -15.406057 13.472206 3.180542 20.113897 -0.261937 -22.830069 -6.568415 8.195064 21.104327 -0.293940 5.620507 2.724927 -0.435200 -0.641650 -0.580090 17.912708 -10.895647 2.510705 -8.361718 0.819591 -7.636308 10.431060 -6.875073 15.660412 -0.187277 -4.206350 3.080791 -0.352900 0.833820 0.044040 -2.929449 -2.247658 -7.520445 -9.395350 1.234263 16.945838 -18.918203 7.236448 7.672413 6.626810 -8.440203 -15.855626 -14.522466 -7.651667 26.011737 10.370640 -15.297190 -8.358970 8.542464 -2.707427 7.106183 -12.589602 -0.934287 -0.579748 144.997968 -24.898873 -84.919778 -4.026942 2.827943 0.444950 0.210700 -0.298400 0.154970 -19.824159 14.018571 8.896742 -27.207316 -12.712872 -8.583226 -20.730529 -23.228159 3.143043 4.135440 -0.119492 -0.451860 0.566290 0.499290 0.114460 
-0.415570 17.666840 -0.364260 -11.502155 13.981029 -1.505790 -15.406242 13.352571 3.318103 20.639332 -0.039886 -24.930068 -6.373580 8.548463 22.508837 -0.368980 5.833175 2.588552 -0.491060 -0.713540 -0.577030 17.930176 -10.842162 2.529277 -8.509523 1.313053 -8.373405 11.204652 -7.041447 16.093411 -0.180797 -4.185474 3.059357 -0.374580 0.806480 0.015370 -2.963764 -2.149904 -7.645839 -8.706020 0.935365 17.487766 -19.911458 7.329379 7.985280 6.930347 -8.262067 -16.266027 -14.983941 -6.397790 28.181811 10.788520 -13.959440 -9.874940 8.127423 -3.470539 6.852848 -11.383647 -1.177414 -0.991633 145.478399 -25.405807 -87.623588 -4.026647 2.768690 0.525740 0.181860 -0.287990 0.082490 -20.052113 15.044237 8.962968 -29.120806 -10.471332 -7.056652 -15.680764 -18.326955 1.577335 3.746747 0.087238 -0.509570 0.596990 0.571190 0.057950 
